# xmcd CD database file
#
# Track frame offsets:
#	150
#	26925
#	45125
#
# Disc length: 956 seconds
#
# Revision: 0
# Processed by: cddbd v1.5PL3 Copyright (c) Steve Scherf et al.
# Submitted via: CDex 1.50beta9
#
DISCID=1a03ba03
DTITLE=今井　美樹 - Miss You
DYEAR=1994
DGENRE=JPop
TTITLE0=Miss You
TTITLE1=輝く街で
TTITLE2=Miss You (Instrumental)
EXTD=YEAR: 1994
EXTT0=
EXTT1=
EXTT2=
PLAYORDER=
